<svg width="209" height="94" viewBox="0 0 209 94" fill="none" xmlns="http://www.w3.org/2000/svg">
<g clip-path="url(#clip0_19_106)">
<path d="M0.75904 51.0677C0.37952 51.0677 0 50.6835 0 50.2993L0.503277 28.332L0 6.99947C0 6.61525 0.37952 6.23103 0.75904 6.23103H28.7858C29.1653 6.23103 29.5448 6.61525 29.5448 6.99947V11.6101C29.5448 11.9943 29.1653 12.3785 28.7858 12.3785H8.09368L7.71416 24.2225H27.1357C27.5152 24.2225 27.8947 24.6067 27.8947 24.9909V29.6016C27.8947 29.9858 27.5152 30.37 27.1357 30.37H7.71416L8.09368 44.9119H29.289C29.6686 44.9119 30.0481 45.2961 30.0481 45.6803V50.2909C30.0481 50.6751 29.6686 51.0594 29.289 51.0594H0.75904V51.0677Z" fill="#498F7A"/>
<path d="M50.6082 51.8361C40.5509 51.8361 34.6683 45.1123 34.6683 34.6716C34.6683 24.2309 40.5509 17.3149 50.7979 17.3149C58.8916 17.3149 64.0811 21.9924 64.9062 28.9083C64.9722 29.2925 64.5927 29.6767 64.2131 29.6767H58.7101C58.2646 29.6767 57.8851 29.3593 57.8273 28.9083C57.0023 24.7487 54.1559 22.8276 50.8062 22.8276C45.1794 22.8276 42.5227 26.9287 42.5227 34.6131C42.5227 42.2975 45.2454 46.3318 50.8062 46.3986C54.7251 46.4654 57.5715 43.968 58.1408 39.2906C58.2068 38.8395 58.5203 38.5221 58.9659 38.5221H64.6587C65.0382 38.5221 65.4177 38.9063 65.3517 39.2906C64.5927 46.5907 58.9576 51.8445 50.6082 51.8445V51.8361Z" fill="#498F7A"/>
<path d="M86.3491 51.8362C76.102 51.8362 70.2195 45.1123 70.2195 34.6716C70.2195 24.2309 76.102 17.3149 86.3491 17.3149C96.5961 17.3149 102.355 24.0387 102.355 34.4795C102.355 44.9202 96.5961 51.8362 86.3491 51.8362ZM86.3491 46.3903C91.9181 46.3903 94.5088 42.5481 94.5088 34.6716C94.5088 26.7951 91.8521 22.7608 86.2831 22.7608C80.714 22.8276 78.0574 26.9204 78.0574 34.7384C78.0574 42.5564 80.78 46.3903 86.3408 46.3903H86.3491Z" fill="#498F7A"/>
<path d="M147.196 51.0677C146.817 51.0677 146.437 50.6835 146.437 50.2993L146.751 34.3542L146.437 18.8601C146.437 18.4759 146.817 18.0917 147.196 18.0917H153.648C154.027 18.0917 154.407 18.4759 154.407 18.8601L154.093 34.3542L154.407 50.2993C154.407 50.6835 154.027 51.0677 153.648 51.0677H147.196ZM147.32 14.5001C146.94 14.5001 146.561 14.1159 146.561 13.7317V7.65097C146.561 7.26675 146.94 6.88253 147.32 6.88253H153.516C153.895 6.88253 154.275 7.26675 154.275 7.65097V13.7317C154.275 14.1159 153.895 14.5001 153.516 14.5001H147.32Z" fill="#498F7A"/>
<path d="M169.654 38.7644L169.967 50.2909C169.967 50.6751 169.588 51.0594 169.208 51.0594H162.69C162.311 51.0594 161.931 50.6751 161.931 50.2909L162.245 38.7644L162.055 18.8434C162.055 18.4592 162.434 18.075 162.814 18.075H168.763C169.142 18.075 169.522 18.4592 169.522 18.8434L169.398 22.8777C171.551 19.5451 174.587 17.3066 179.076 17.3066C183.564 17.3066 186.922 19.3529 188.374 23.8383C190.964 19.1024 194.322 17.3066 198.497 17.3066C205.015 17.3066 208.81 21.3409 208.81 30.2447V38.7644L209 50.2909C209 50.6751 208.62 51.0594 208.241 51.0594H201.855C201.475 51.0594 201.096 50.6751 201.096 50.2909L201.409 38.7644V30.4368C201.409 25.442 199.256 23.3288 196.096 23.3288C193.126 23.3288 190.09 26.5278 189.265 32.4247V38.7644L189.578 50.2909C189.578 50.6751 189.199 51.0594 188.819 51.0594H182.433C182.054 51.0594 181.674 50.6751 181.674 50.2909L181.93 38.7644V30.4368C181.93 25.442 179.909 23.3288 176.683 23.3288C173.457 23.3288 170.297 26.912 169.662 33.4438V38.756L169.654 38.7644Z" fill="#498F7A"/>
<path d="M119.268 3.79208C116.999 6.10574 116.612 8.09366 117.923 9.41337C119.928 11.4263 124.87 9.73076 130.192 5.69647L130.027 5.85516L133.459 3.20739C133.261 2.96517 133.038 2.72294 132.815 2.49742C128.591 -1.73734 123.063 -0.0835247 119.268 3.79208Z" fill="#498F7A"/>
<path d="M123.261 39.5913C127.855 39.5913 131.578 35.8218 131.578 31.1719C131.578 26.5219 127.855 22.7524 123.261 22.7524C118.668 22.7524 114.945 26.5219 114.945 31.1719C114.945 35.8218 118.668 39.5913 123.261 39.5913Z" stroke="#498F7A" stroke-miterlimit="10"/>
<path d="M131.578 18.7349V31.1719C131.578 26.5195 127.857 22.7524 123.261 22.7524C118.666 22.7524 114.945 26.5195 114.945 31.1719C114.945 35.8242 118.666 39.5913 123.261 39.5913C127.857 39.5913 131.578 35.8242 131.578 31.1719V42.8404C129.144 44.6446 126.133 45.7137 122.882 45.7137C114.739 45.7137 108.138 39.0316 108.138 30.7876C108.138 22.5436 114.739 15.8616 122.882 15.8616C126.133 15.8616 129.144 16.9223 131.578 18.7349Z" fill="#498F7A" stroke="#498F7A" stroke-miterlimit="10"/>
<path d="M123.261 39.5913C127.855 39.5913 131.578 35.8218 131.578 31.1719C131.578 26.5219 127.855 22.7524 123.261 22.7524C118.668 22.7524 114.945 26.5219 114.945 31.1719C114.945 35.8218 118.668 39.5913 123.261 39.5913Z" stroke="#498F7A" stroke-miterlimit="10"/>
<path d="M137.625 30.7876C137.625 35.7407 135.241 40.1258 131.578 42.8404V18.7349C135.241 21.4494 137.625 25.8345 137.625 30.7876Z" fill="#498F7A" stroke="#498F7A" stroke-miterlimit="10"/>
<path d="M131.578 61.9511C131.627 62.8449 131.644 63.8221 131.578 64.8578V61.9511Z" stroke="#498F7A" stroke-miterlimit="10"/>
<path d="M138.764 16.2458V65.2337H138.054C139.251 59.4036 138.566 54.3419 137.964 51.4603C135.794 51.4102 133.665 51.5104 131.578 51.7693V42.4729C135.447 39.7583 137.964 35.3732 137.964 30.4201C137.964 25.467 135.447 21.0819 131.578 18.3673V16.2625H138.764V16.2458Z" fill="#498F7A" stroke="#498F7A" stroke-miterlimit="10"/>
<path d="M131.578 64.8662C131.454 66.9794 131.033 69.3181 130.068 71.7404C125.324 83.6595 112.074 86.1319 111.166 86.2822C110.688 83.743 109.986 77.9714 112.676 71.7404C117.577 60.4143 129.391 57.5159 130.819 57.1985C131.083 58.2175 131.446 59.888 131.578 61.9595C131.627 62.8532 131.644 63.8305 131.578 64.8662V64.8662Z" stroke="#498F7A" stroke-miterlimit="10"/>
<path d="M137.708 65.6096H131.578V64.8578C131.644 63.8221 131.627 62.8449 131.578 61.9511V52.1368C133.55 51.8863 135.571 51.7777 137.625 51.8278C138.195 54.7094 138.847 59.7711 137.708 65.6012V65.6096Z" fill="#498F7A" stroke="#498F7A" stroke-miterlimit="10"/>
<path d="M138.648 65.6096C138.252 67.6392 137.617 69.7692 136.685 71.9241C128.632 90.5671 105.803 93.4237 104.673 93.549C103.625 90.5671 100.696 80.995 105.069 70.9719C109.516 60.7818 119.953 53.6988 132.329 52.1452V61.9595C132.197 59.888 131.825 58.2175 131.553 57.1985C130.085 57.5159 117.907 60.4143 112.858 71.7404C110.085 77.9714 110.811 83.743 111.298 86.2822C112.231 86.1319 125.877 83.6595 130.769 71.7404C131.768 69.3181 132.205 66.9794 132.329 64.8662V65.6179H138.648V65.6096Z" fill="#498F7A" stroke="#498F7A" stroke-miterlimit="10"/>
<path d="M131.578 64.8662C131.454 66.9794 131.033 69.3181 130.068 71.7404C125.324 83.6595 112.074 86.1319 111.166 86.2822C110.688 83.743 109.986 77.9714 112.676 71.7404C117.577 60.4143 129.391 57.5159 130.819 57.1985C131.083 58.2175 131.446 59.888 131.578 61.9595C131.627 62.8532 131.644 63.8305 131.578 64.8662V64.8662Z" stroke="#498F7A" stroke-miterlimit="10"/>
</g>
<defs>
<clipPath id="clip0_19_106">
<rect width="209" height="94" fill="white"/>
</clipPath>
</defs>
</svg>
