<svg xmlns="http://www.w3.org/2000/svg" viewBox="0 0 425.2 123.16"><defs><style>.cls-1{fill:#e60012;}.cls-2{fill:#231815;}</style></defs><title>logo</title><g id="レイヤー_2" data-name="レイヤー 2"><g id="レイヤー_1-2" data-name="レイヤー 1"><path class="cls-1" d="M0,76.33S-2.8,49,46.86,0C96.51,49,93.68,76.33,93.68,76.33A46.83,46.83,0,1,1,0,76.33Zm46.83,30.44A30.43,30.43,0,0,0,77.29,76.33s1.84-17.77-30.43-49.61C14.58,58.56,16.42,76.33,16.42,76.33A30.44,30.44,0,0,0,46.86,106.77Z"/><path class="cls-1" d="M64.56,76.33a17.71,17.71,0,1,1-17.7-17.7A17.7,17.7,0,0,1,64.56,76.33Z"/><path class="cls-2" d="M199.35,42.76c-10.71-10.95-26.7-12.55-42.42-12.64l-8.87.12c-3.38.05-5.78.09-7.76.09-2.55,0-6.67-.1-10.31-.19-2.73-.06-5.13-.12-6.24-.12-4.1,0-4.71,2.05-4.71,3.27,0,.53.2,3.2,4,3.46,1.14.12,2,.17,2.64.21.44,0,.8,0,1.16.1,1.77.18,2.31.73,2.54,4s.2,6,.2,21.14v18.1c0,8.24-.18,15.67-.51,20.9-.11,1.48-.45,4-1.47,4.15a25.92,25.92,0,0,1-2.87.37c-3.1,0-4.2,1.83-4.2,3.37,0,.79.32,3.37,4.4,3.37,2.13,0,3.44,0,5.1-.12l2.08-.09c2.84-.1,5.32-.1,7.73-.1,1.79,0,5.88.29,10,.71,3.2.29,6.66.42,11.21.42,16.26,0,28.31-4.23,36.78-12.88,5.82-5.51,12-16.25,12-29.87C209.89,55.53,203.28,46.68,199.35,42.76ZM152.51,60.54c0-3.76.05-7.33.08-10.44,0-3.79.08-6.8,0-8.7a17.43,17.43,0,0,1,4.13-.42c6.34,0,15.27,1.78,21.77,10.25a38.15,38.15,0,0,1,7.25,22.16c0,11.26-1.9,18.42-6,22.54-4.43,4.6-9.37,6.48-17,6.48-4.44,0-7.66-1.47-8.78-2.84l-.16-.18c-.73-.72-.95-3.51-1.06-5.87-.1-1.86-.21-8.86-.21-19.82Z"/><path class="cls-1" d="M293.64,105.7l-.82-.07a11,11,0,0,1-2-.26l-.28-.06c-2.37-.34-4.19-1.92-7.55-9.64-3.19-7.13-8.5-19.15-13.63-30.77-6.1-13.82-11.86-26.88-13.33-30-1.91-4-3.25-6.48-5.82-6.48-2.88,0-4.52,3.18-6.36,7.35L216.4,97.85c-2.19,5-3.85,7-6.13,7.48a24.92,24.92,0,0,1-2.93.37c-3.78,0-4.19,2.37-4.19,3.37,0,.56.21,3.37,4.39,3.37,3.54,0,7.77-.14,10.57-.24l2.49-.07c2.8,0,5.07.08,7.27.16s4,.15,6.31.15c4.06,0,4.5-2.36,4.5-3.37,0-.56-.2-3.3-4-3.37l-1-.1c-.75-.07-1.68-.16-2.32-.27l-.2,0a2.85,2.85,0,0,1-.9-.19,1.58,1.58,0,0,1-.07-.56,21.63,21.63,0,0,1,1.5-5.76l2.89-7.63h21.59l6.08,14.45a3.45,3.45,0,0,0-2.4,3.25c0,1.22.6,3.27,4.57,3.27l2.3,0c6.82.11,17.11.27,26.12.27,3.33,0,5-1.13,5-3.37C297.8,107.54,296.71,105.75,293.64,105.7ZM239.38,78.25l5.88-14.82,6.09,14.82Z"/><path class="cls-1" d="M339.87,105.7l-.51,0a26.93,26.93,0,0,1-3.58-.41c-1.51-.36-1.92-.76-2.11-3.19-.41-4.37-.5-14.26-.5-21.78V62.18c0-15.68,0-18.5.31-21.77.16-3,.74-3.14,1.92-3.37.83-.13,1.36-.17,1.91-.21l.84-.07c4-.06,4.17-2.81,4.17-3.37,0-1-.45-3.37-4.6-3.37-2.5,0-8.75.14-12.88.23l-3.88.08-2.91-.07c-3.45-.09-9.23-.24-12.11-.24-3.8,0-4.6,1.78-4.6,3.27,0,1.71,1.3,3.43,4.2,3.47a16.41,16.41,0,0,1,2.54.32l.22.05c.45.08,1.49.27,1.69,3.06.3,3.18.3,6.05.3,22v18.1c0,10.09-.21,17.35-.61,21.56-.22,2.13-.65,3.4-1.28,3.49-1,.18-1.89.27-2.89.37-4.07.06-4.27,2.81-4.27,3.37,0,1.54.83,3.37,4.81,3.37,2.55,0,9-.16,12.44-.25l2.36-.06,2.57.06c3.92.08,11.2.25,16.35.25,4.38,0,4.51-3,4.51-3.37C344.28,108.06,343.84,105.74,339.87,105.7Z"/><path class="cls-2" d="M421.93,87.5c-2.65,0-3.3,2.57-3.53,3.53a18.34,18.34,0,0,1-1,3.11c-1,3.06-3,5.8-16,5.8H385.54c9.87-15.81,23.79-38.41,37.78-62,1-1.74,1.57-2.86,1.57-4.19,0-1.56-1-3.37-3.89-3.37H384.35c-4.54,0-9.22,0-17.33-.31a11.7,11.7,0,0,1-2.55-.42,6.9,6.9,0,0,0-1.77-.3c-1.08,0-3,.51-3.45,4-.14,1-.35,2.55-.59,4.26-.9,6.41-1.59,11.43-1.59,12.91,0,2.78,1.06,4.19,3.16,4.19,2.48,0,3.34-2.58,3.7-3.66,1-3.67,2.6-6.05,4.65-7.07,2.49-1.25,6.11-1.71,13.35-1.71h13.32c-11.62,19.11-25.45,41.34-38.33,61.6-1.41,2.22-2.11,3.34-2.11,4.85,0,1.68,1.29,3.37,4.19,3.37,12.89,0,24,.15,33.87.29,8.45.11,16.43.22,24.33.22,3.78,0,4.62-3,5-4.29,1.19-3.65,3-13,3-16.25C425.2,88.08,423.15,87.5,421.93,87.5Z"/><path class="cls-2" d="M46.86,100.64a24.31,24.31,0,1,1,24.3-24.31A24.34,24.34,0,0,1,46.86,100.64Zm0-41.42A17.12,17.12,0,1,0,64,76.33,17.14,17.14,0,0,0,46.86,59.22Z"/></g></g></svg>